<?xml version="1.0" encoding="UTF-8"?>
<svg id="Layer_2" data-name="Layer 2" xmlns="http://www.w3.org/2000/svg" xmlns:xlink="http://www.w3.org/1999/xlink" viewBox="0 0 218.82 73.73">
  <defs>
    <style>
      .cls-1 {
        fill: url(#linear-gradient);
      }

      .cls-2 {
        fill: #1a1a1a;
      }
    </style>
    <linearGradient id="linear-gradient" x1="212.1" y1="38.03" x2="129.84" y2="38.03" gradientUnits="userSpaceOnUse">
      <stop offset="0" stop-color="#de2910"/>
      <stop offset="1" stop-color="#a60000"/>
    </linearGradient>
  </defs>
  <g id="logo_v1" data-name="logo v1">
    <g>
      <g>
        <path class="cls-2" d="M94.75,15.75v44.43h-10.53v-26.42l-10.77,18.56h-5.48l-10.77-18.56v26.42h-10.53v-2.5h-29.95l2.82-4.9h23.13c.23,0,.44-.1.59-.27.15-.16.24-.39.24-.64,0-.5-.37-.9-.83-.9h-10l1.31-2.18h12.69v-6.04H0l3.84-6.16h31.51c.31,0,.6-.13.8-.33s.33-.49.33-.8c0-.63-.51-1.13-1.13-1.13h-13.62l1.79-2.73h23.16v-6.04h-26.47l6.44-9.79h30.69l13.39,23,13.39-23h10.65ZM95.17,15.75l14.36,26.48v17.95h10.53v-17.95l14.36-26.48h-11.87l-7.73,14.79-7.79-14.79h-11.87Z"/>
        <path class="cls-1" d="M136.59,21.66c4.5-4.5,9.96-6.76,16.37-6.76,3.61,0,7,.78,10.16,2.34,3.17,1.56,5.82,3.7,7.97,6.42l-8.76,6.45c-2.48-2.96-5.6-4.44-9.37-4.44-3.37,0-6.27,1.21-8.7,3.62-2.43,2.41-3.65,5.31-3.65,8.67s1.21,6.32,3.62,8.73c2.41,2.41,5.33,3.62,8.73,3.62,3.81,0,6.9-1.44,9.25-4.32l9.37,5.66c-2.15,2.96-4.85,5.29-8.1,6.97-3.25,1.68-6.76,2.53-10.53,2.53-6.41,0-11.87-2.26-16.37-6.79-4.5-4.52-6.76-9.99-6.76-16.4s2.25-11.81,6.76-16.31ZM173.76,60.18V15.75h10.53l17.22,25.68V15.75h10.59v44.43h-10.59l-17.22-25.68v25.68h-10.53Z"/>
      </g>
      <polygon class="cls-2" points="218.82 0 36.59 0 36.59 0 33.09 0 33.09 14.01 36.59 14.01 36.59 2.76 215.32 2.76 215.32 14.48 218.82 14.48 218.82 2.76 218.82 2.76 218.82 0"/>
      <polygon class="cls-2" points="33.09 73.73 215.32 73.73 215.32 73.73 218.82 73.73 218.82 59.72 215.32 59.72 215.32 70.97 36.59 70.97 36.59 59.26 33.09 59.26 33.09 70.97 33.09 70.97 33.09 73.73"/>
    </g>
  </g>
</svg>