<svg xmlns="http://www.w3.org/2000/svg" version="1.1" xmlns:xlink="http://www.w3.org/1999/xlink" width="512" height="512" x="0" y="0" viewBox="0 0 512 512" style="enable-background:new 0 0 512 512" xml:space="preserve"><g><path d="M437.018 39.687c-5.859-5.859-15.355-5.857-21.214 0-5.857 5.858-5.857 15.355.001 21.213C458.492 103.585 482 160.339 482 220.707c0 8.284 6.717 15 15 15 8.285 0 15-6.716 15-15 0-68.382-26.629-132.669-74.982-181.02zM96.193 39.688c-5.859-5.859-15.355-5.857-21.214 0C26.629 88.042 0 152.328 0 220.707c0 8.284 6.716 15 15 15s15-6.716 15-15c0-60.365 23.508-117.119 66.193-159.806 5.858-5.858 5.858-15.355 0-21.213zM370.357 85.126c-5.857 5.858-5.857 15.355.001 21.214 30.55 30.547 47.374 71.163 47.374 114.367 0 8.284 6.717 15 15 15 8.285 0 15-6.716 15-15 0-51.218-19.945-99.368-56.161-135.582-5.858-5.857-15.356-5.856-21.214.001zM141.634 85.133c-5.858-5.857-15.355-5.856-21.213.001-36.212 36.216-56.155 84.363-56.155 135.573 0 8.284 6.717 15 15 15 8.285 0 15-6.716 15-15 0-43.197 16.823-83.812 47.369-114.36 5.857-5.859 5.857-15.357-.001-21.214zM383.467 329.633V252.84c0-28.01-8.918-54.589-25.789-76.864-14.102-18.616-33.333-33.16-54.939-41.718C299.73 111.146 279.918 93.24 256 93.24s-43.732 17.906-46.739 41.018c-21.606 8.558-40.837 23.102-54.938 41.718-16.872 22.275-25.79 48.854-25.79 76.864v76.793l-30.549 61.099A15 15 0 0 0 111.4 412.44h289.2a14.998 14.998 0 0 0 13.417-21.708zM256 476.707c27.005 0 50.886-13.584 65.204-34.268H190.795c14.319 20.684 38.2 34.268 65.205 34.268z" fill="#D7D7D7" opacity="1" data-original="#000000"></path></g></svg>