<svg xmlns="http://www.w3.org/2000/svg" version="1.1" xmlns:xlink="http://www.w3.org/1999/xlink" width="32" height="32" x="0" y="0" viewBox="0 0 30 30" style="enable-background:new 0 0 512 512" xml:space="preserve" class=""><g><path d="M28.151 11.606c-.067-1.564-1.491-2.943-3.038-3.047a2.648 2.648 0 0 0-1.858.876l-2.657 2.657c-.761-1.183-2.064-2.265-3.542-1.714-.78-1.421-2.632-2.345-4.063-1.266-2.843-2.915-6.054 1.913-8.354 3.871-3.726 3.768-3.72 9.859.013 13.619 3.69 4.127 11.16 4.303 14.779.005 1.883-1.985 5.108-5.067 1.999-7.297l5.845-5.845c.53-.476.846-1.146.876-1.859zm-1.936.789c-.002-.004-11.072 11.073-11.073 11.072-.69.695.364 1.753 1.061 1.061l4.161-4.161c.172.139.383.32.567.5.686.686.034 1.662-.291 2.065a32.725 32.725 0 0 1-2.288 2.62c-2.976 3.594-9.228 3.549-12.4.231-3.36-3.137-3.5-8.487-.245-11.751 1.6-1.595 2.334-2.277 3.739-3.515.564-.643 1.718-1.218 2.393-.434l-2.64 2.641c-.645.693.368 1.706 1.061 1.059l2.686-2.687c1.606-1.574 2.041-.941 2.798.01-.546.385-2.683 2.624-3.202 3.116-.666.694.363 1.73 1.06 1.061.626-.566 2.65-2.784 3.343-3.187 1.099-.944 1.99.147 2.568 1.079l-3.733 3.733c-.667.693.365 1.73 1.061 1.06l7.473-7.473c.203-.245.494-.401.81-.437 1.005.132 2.115 1.534 1.091 2.337zM3.548 5.514a14.005 14.005 0 0 1 17.76-1.131h-.415c-.983-.001-.988 1.496-.004 1.5h2.469a.75.75 0 0 0 .75-.75V2.664c-.005-.98-1.495-.982-1.5 0v.8a15.536 15.536 0 0 0-20.084.95c-.715.672.301 1.767 1.024 1.1z" fill="#AAAAAA" opacity="1" data-original="#000000"></path></g></svg>