<svg xmlns="http://www.w3.org/2000/svg" version="1.1" xmlns:xlink="http://www.w3.org/1999/xlink" width="52" height="52" x="0" y="0" viewBox="0 0 512 512" style="enable-background:new 0 0 512 512" xml:space="preserve" class=""><g><path d="m506.347 349.248-56.525-28.262c-5.079-2.54-11.203-.471-13.742 4.567-2.539 5.079-.471 11.203 4.588 13.742l38.195 19.108L256 469.834 33.137 358.403l38.195-19.108c5.059-2.539 7.127-8.663 4.588-13.742-2.54-5.038-8.684-7.107-13.742-4.567L5.652 349.248A10.257 10.257 0 0 0 0 358.403c0 3.871 2.191 7.414 5.652 9.155l245.76 122.88c1.454.717 3.011 1.085 4.588 1.085s3.133-.369 4.588-1.085l245.76-122.88a10.257 10.257 0 0 0 5.652-9.155c0-3.871-2.191-7.414-5.653-9.155z" fill="#D8250F" opacity="1" data-original="#000000"></path><path d="m506.347 246.848-56.525-28.262a10.226 10.226 0 0 0-13.742 4.567c-2.539 5.079-.471 11.203 4.588 13.742l38.195 19.108L256 367.434 33.137 256.003l38.195-19.108c5.059-2.539 7.127-8.663 4.588-13.742-2.54-5.059-8.684-7.107-13.742-4.567L5.652 246.848C2.191 248.589 0 252.132 0 256.003s2.191 7.414 5.652 9.155l245.76 122.88c1.454.717 3.011 1.085 4.588 1.085s3.133-.369 4.588-1.085l245.76-122.88c3.461-1.741 5.652-5.284 5.652-9.155s-2.191-7.414-5.653-9.155z" fill="#D8250F" opacity="1" data-original="#000000"></path><path d="m5.652 162.757 245.76 122.88c1.454.717 3.011 1.085 4.588 1.085s3.133-.369 4.588-1.085l245.76-122.88c3.461-1.741 5.653-5.284 5.653-9.155s-2.191-7.414-5.652-9.155l-245.76-122.88a10.195 10.195 0 0 0-9.175 0L5.653 144.448C2.191 146.189 0 149.732 0 153.603s2.191 7.413 5.652 9.154zM256 42.171l222.863 111.432L256 265.034 33.137 153.603 256 42.171z" fill="#D8250F" opacity="1" data-original="#000000"></path></g></svg>