<svg xmlns="http://www.w3.org/2000/svg" version="1.1" xmlns:xlink="http://www.w3.org/1999/xlink" width="32" height="32" x="0" y="0" viewBox="0 0 64 64" style="enable-background:new 0 0 512 512" xml:space="preserve"><g><path d="M2 48h8v14a1 1 0 0 0 1 1h42a1 1 0 0 0 1-1V48h8a1 1 0 0 0 .707-1.707l-9-9A1 1 0 0 0 53 37H11a1 1 0 0 0-.707.293l-9 9A1 1 0 0 0 2 48Zm10 0h11a1 1 0 0 0 .707-.293L31 40.414V61H12Zm40 13H33V40.414l7.293 7.293A1 1 0 0 0 41 48h11Zm.586-22 7 7H41.414l-7-7Zm-41.172 0h18.172l-7 7H4.414ZM15.836 20.986l2.588.432a13.881 13.881 0 0 0 1.559 3.765l-1.524 2.135a1 1 0 0 0 .106 1.288l2.829 2.829a1 1 0 0 0 1.288.107l2.135-1.526a13.852 13.852 0 0 0 3.765 1.56l.432 2.589A1 1 0 0 0 30 35h4a1 1 0 0 0 .986-.835l.432-2.589a13.852 13.852 0 0 0 3.765-1.56l2.135 1.526a1 1 0 0 0 1.288-.107l2.829-2.829a1 1 0 0 0 .106-1.288l-1.524-2.135a13.881 13.881 0 0 0 1.559-3.765l2.588-.432A1 1 0 0 0 49 20v-4a1 1 0 0 0-.836-.986l-2.588-.432a13.855 13.855 0 0 0-1.559-3.765l1.524-2.135a1 1 0 0 0-.106-1.288l-2.829-2.829a1 1 0 0 0-1.288-.107l-2.135 1.526a13.834 13.834 0 0 0-3.765-1.56l-.432-2.589A1 1 0 0 0 34 1h-4a1 1 0 0 0-.986.835l-.432 2.589a13.834 13.834 0 0 0-3.765 1.56l-2.135-1.526a1 1 0 0 0-1.288.107l-2.829 2.829a1 1 0 0 0-.106 1.288l1.524 2.135a13.855 13.855 0 0 0-1.559 3.765l-2.588.432A1 1 0 0 0 15 16v4a1 1 0 0 0 .836.986ZM17 16.847l2.416-.4a1 1 0 0 0 .816-.791 11.887 11.887 0 0 1 1.788-4.316A1 1 0 0 0 22 10.2l-1.422-1.992 1.631-1.63L24.2 8a1 1 0 0 0 1.137.018 11.886 11.886 0 0 1 4.313-1.787 1 1 0 0 0 .792-.816L30.847 3h2.306l.4 2.417a1 1 0 0 0 .792.816 11.886 11.886 0 0 1 4.316 1.787A1 1 0 0 0 39.8 8l1.993-1.424 1.631 1.63L42 10.2a1 1 0 0 0-.018 1.137 11.887 11.887 0 0 1 1.788 4.313 1 1 0 0 0 .816.791l2.416.4v2.306l-2.416.4a1 1 0 0 0-.816.791 11.906 11.906 0 0 1-1.788 4.314A1 1 0 0 0 42 25.8l1.424 2-1.631 1.63L39.8 28a1 1 0 0 0-1.137-.018 11.906 11.906 0 0 1-4.313 1.787 1 1 0 0 0-.792.816L33.153 33h-2.306l-.4-2.417a1 1 0 0 0-.792-.816 11.906 11.906 0 0 1-4.313-1.787A1 1 0 0 0 24.2 28l-1.993 1.424-1.631-1.63L22 25.8a1 1 0 0 0 .018-1.136 11.906 11.906 0 0 1-1.788-4.314 1 1 0 0 0-.816-.791L17 19.153Z" fill="#D8250F" opacity="1" data-original="#000000"></path><path d="M32 26a8 8 0 1 0-8-8 8.009 8.009 0 0 0 8 8Zm0-14a6 6 0 1 1-6 6 6.006 6.006 0 0 1 6-6ZM50 9h2v11a1 1 0 0 0 1 1h6a1 1 0 0 0 1-1V9h2a1 1 0 0 0 .707-1.707l-6-6a1 1 0 0 0-1.414 0l-6 6A1 1 0 0 0 50 9Zm6-5.586L59.586 7H59a1 1 0 0 0-1 1v11h-4V8a1 1 0 0 0-1-1h-.586ZM7.293 34.707a1 1 0 0 0 1.414 0l6-6A1 1 0 0 0 14 27h-2V16a1 1 0 0 0-1-1H5a1 1 0 0 0-1 1v11H2a1 1 0 0 0-.707 1.707ZM5 29a1 1 0 0 0 1-1V17h4v11a1 1 0 0 0 1 1h.586L8 32.586 4.414 29Z" fill="#D8250F" opacity="1" data-original="#000000"></path></g></svg>