<svg xmlns="http://www.w3.org/2000/svg" version="1.1" xmlns:xlink="http://www.w3.org/1999/xlink" width="42" height="42" x="0" y="0" viewBox="0 0 60 60" style="enable-background:new 0 0 512 512" xml:space="preserve"><g><path d="M57.649 58a.344.344 0 0 0 .311-.166.257.257 0 0 0 0-.271L48.469 40.6l-.88.862a1.718 1.718 0 0 1-1.22.495 1.717 1.717 0 0 1-1.226-.5L44 40.34l-1.9 1.853 7.57 13.845A2.644 2.644 0 0 1 49.906 58zM44 33a.344.344 0 0 0-.309.171l-3.3 5.9.712 1.3 1.677-1.637a1.8 1.8 0 0 1 2.446.009l1.142 1.117 1.089-1.06-3.15-5.628A.341.341 0 0 0 44 33zM47.9 57.658a.654.654 0 0 0 .015-.658L36.428 35.986l-1.061 1.061a1.936 1.936 0 0 1-2.734 0l-2.68-2.68-1.586 1.68a1.935 1.935 0 0 1-2.734 0l-1.354-1.354L12.084 57a.656.656 0 0 0 .012.661.69.69 0 0 0 .604.339h34.6a.689.689 0 0 0 .6-.342z" fill="#D8250F" opacity="1" data-original="#000000"></path><path d="M28.633 32.953a1.935 1.935 0 0 1 2.734 0l2.68 2.68 1.391-1.459-4.818-8.812a.712.712 0 0 0-1.24 0l-4.1 7.5 1.769 1.769zM11.531 40.6l-9.5 16.965a.253.253 0 0 0 .006.266.344.344 0 0 0 .314.169h7.742a2.639 2.639 0 0 1 .237-1.962l7.57-13.845L16 40.34l-1.15 1.125a1.714 1.714 0 0 1-1.218.495 1.724 1.724 0 0 1-1.228-.5zM48.954 4.3a.169.169 0 0 0 .026-.2.166.166 0 0 0-.165-.1H33v12h15.815a.166.166 0 0 0 .165-.106.169.169 0 0 0-.026-.2l-3.668-4.274a2.173 2.173 0 0 1 0-2.839zM13.631 39.86l1.15-1.125a1.8 1.8 0 0 1 2.447.008l1.672 1.628.712-1.3-3.3-5.9a.363.363 0 0 0-.616 0L12.542 38.8zM29 3v20.215a2.433 2.433 0 0 1 2 0V3a.959.959 0 0 0-.287-.693A.977.977 0 0 0 30 2a1 1 0 0 0-1 1z" fill="#D8250F" opacity="1" data-original="#000000"></path></g></svg>