<svg xmlns="http://www.w3.org/2000/svg" version="1.1" xmlns:xlink="http://www.w3.org/1999/xlink" width="512" height="512" x="0" y="0" viewBox="0 0 512 512" style="enable-background:new 0 0 512 512" xml:space="preserve" class=""><g><path fill-rule="evenodd" d="m501.854 332.071-35.355-83.248c-4.683-11.027-15.475-17.877-28.163-17.877h-90.498V199.57c0-14.239-11.585-25.824-25.824-25.824h-7.576V65.906c0-13.615-11.077-24.691-24.691-24.691h-56.264v-2.089a8 8 0 0 0-8-8h-30.962c-5.712-13.039-18.625-21.699-33.301-21.699s-27.59 8.66-33.301 21.699H96.956a8 8 0 0 0-8 8v2.089H32.692C19.077 41.215 8 52.292 8 65.906v307.132c0 13.615 11.077 24.692 24.692 24.692h13.255v43.37c0 14.239 11.585 25.824 25.824 25.824h46.822c3.77 20.259 21.567 35.65 42.902 35.65s39.133-15.391 42.902-35.65h170.62c3.77 20.259 21.567 35.65 42.902 35.65s39.132-15.391 42.902-35.65h21.81c11.783 0 21.369-9.586 21.369-21.368V342.562c0-3.708-.682-7.041-2.146-10.491zM104.956 47.125h28.68A8 8 0 0 0 141.413 41c2.212-9.17 10.356-15.575 19.807-15.575 9.45 0 17.595 6.405 19.807 15.575a8 8 0 0 0 7.777 6.124h28.68v27.399H104.956zm120.527 43.399a8 8 0 0 0 8-8v-2.089h41.735V358.51H47.22V80.436h41.735v2.089a8 8 0 0 0 8 8h128.528zM24 373.038V65.906c0-4.792 3.899-8.691 8.692-8.691h56.264v7.221H39.22a8 8 0 0 0-8 8V366.51a8 8 0 0 0 8 8h243.998a8 8 0 0 0 8-8V72.436a8 8 0 0 0-8-8h-49.735v-7.221h56.264c4.792 0 8.691 3.899 8.691 8.691v307.132c0 4.792-3.899 8.692-8.691 8.692H32.692c-4.793 0-8.692-3.899-8.692-8.692zm137.496 113.536c-15.246 0-27.649-12.403-27.649-27.649s12.403-27.649 27.649-27.649 27.65 12.403 27.65 27.649-12.404 27.649-27.65 27.649zm0-71.299c-21.335 0-39.132 15.39-42.902 35.649H71.771c-5.417 0-9.824-4.407-9.824-9.824v-43.37h227.8c13.615 0 24.691-11.077 24.691-24.692V189.747h7.576c5.417 0 9.824 4.407 9.824 9.824v251.354h-127.44c-3.77-20.26-21.567-35.65-42.902-35.65zm256.424 71.299c-15.246 0-27.649-12.403-27.649-27.649s12.403-27.649 27.649-27.649 27.649 12.403 27.649 27.649-12.403 27.649-27.649 27.649zm64.711-35.65h-21.81c-3.77-20.259-21.567-35.649-42.902-35.649s-39.132 15.39-42.902 35.649h-27.18V246.947h90.498c6.157 0 11.306 3.116 13.436 8.132l35.354 83.246c.628 1.48.873 2.668.873 4.238v38.43H473.38c-7.809 0-14.163 6.353-14.163 14.162v25.883c0 7.809 6.354 14.163 14.163 14.163H488v10.355a5.374 5.374 0 0 1-5.369 5.368zM488 396.992V419.2h-12.781v-22.208zm-16.306-56.671a8.002 8.002 0 0 0 .692-7.542l-29.542-69.56a8 8 0 0 0-7.363-4.873h-68.243a8 8 0 0 0-8 8v69.56a8 8 0 0 0 8 8h97.785a7.997 7.997 0 0 0 6.671-3.585zm-96.456-12.415v-53.56h54.949l22.747 53.56zM173.642 458.924c0 6.713-5.433 12.146-12.146 12.146s-12.146-5.433-12.146-12.146 5.433-12.146 12.146-12.146 12.146 5.433 12.146 12.146zm256.424 0c0 6.713-5.433 12.146-12.146 12.146s-12.146-5.433-12.146-12.146 5.433-12.146 12.146-12.146 12.146 5.433 12.146 12.146zM157.492 162.256a8 8 0 0 1 8-8h78.433a8 8 0 0 1 0 16h-78.433a8 8 0 0 1-8-8zm0-33.379a8 8 0 0 1 8-8h78.433a8 8 0 0 1 0 16h-78.433a8 8 0 0 1-8-8zm0 78.951a8 8 0 0 1 8-8h78.433a8 8 0 0 1 0 16h-78.433a8 8 0 0 1-8-8zm0 33.379a8 8 0 0 1 8-8h78.433a8 8 0 0 1 0 16h-78.433a8 8 0 0 1-8-8zm0 45.571a8 8 0 0 1 8-8h78.433a8 8 0 0 1 0 16h-78.433a8 8 0 0 1-8-8zm0 33.379a8 8 0 0 1 8-8h78.433a8 8 0 0 1 0 16h-78.433a8 8 0 0 1-8-8zM70.514 131.493v28.149c0 9.533 7.756 17.289 17.289 17.289h28.148c9.533 0 17.288-7.756 17.288-17.289v-28.149c0-9.533-7.755-17.289-17.288-17.289H87.802c-9.532 0-17.288 7.756-17.288 17.289zm46.725 0v28.149c0 .687-.602 1.289-1.288 1.289H87.802c-.687 0-1.289-.602-1.289-1.289v-28.149c0-.687.602-1.289 1.289-1.289h28.148c.687 0 1.289.602 1.289 1.289zm-1.288 61.661H87.802c-9.533 0-17.289 7.756-17.289 17.289v28.149c0 9.533 7.756 17.289 17.289 17.289h28.148c9.533 0 17.288-7.756 17.288-17.289v-28.149c.001-9.533-7.755-17.289-17.287-17.289zm1.288 45.438c0 .687-.602 1.289-1.288 1.289H87.802c-.687 0-1.289-.602-1.289-1.289v-28.149c0-.687.602-1.289 1.289-1.289h28.148c.686 0 1.288.602 1.288 1.289v28.149zm-1.288 33.512H87.802c-9.533 0-17.289 7.755-17.289 17.288v28.149c0 9.533 7.756 17.288 17.289 17.288h28.148c9.533 0 17.288-7.755 17.288-17.288v-28.149c.001-9.532-7.755-17.288-17.287-17.288zm1.288 45.438c0 .686-.602 1.288-1.288 1.288H87.802c-.687 0-1.289-.602-1.289-1.288v-28.149c0-.686.602-1.288 1.289-1.288h28.148c.686 0 1.288.602 1.288 1.288v28.149zm51.486-276.853a7.506 7.506 0 1 1-7.506-7.506 7.505 7.505 0 0 1 7.506 7.506z" clip-rule="evenodd" fill="#FFFFFF" opacity="1" data-original="#000000" class=""></path></g></svg>