<svg xmlns="http://www.w3.org/2000/svg" version="1.1" xmlns:xlink="http://www.w3.org/1999/xlink" width="512" height="512" x="0" y="0" viewBox="0 0 128 128" style="enable-background:new 0 0 512 512" xml:space="preserve" fill-rule="evenodd" class=""><g><path d="m12.404 40.774-5.818-5.818a2 2 0 0 1 0-2.828L19.314 19.4a1.996 1.996 0 0 1 2.828 0l5.821 5.82a11.663 11.663 0 0 1 6.448-3.105l1.709-6.833C37.478 9.849 42.399 6.006 48 6.006h46a2 2 0 0 1 1.985 1.752l2 16c.01.082.015.165.015.248v30.499a2 2 0 0 1-4 0V24.131l-1.765-14.125H77.236l-7.447 14.895A2 2 0 0 1 68 26.006H36c-2.03 0-3.979.807-5.414 2.243L15.071 43.764A17.316 17.316 0 0 0 10 56.006v60c0 1.097.903 2 2 2h58.104a2 2 0 0 1 0 4H12c-3.291 0-6-2.708-6-6v-60c0-5.65 2.247-11.075 6.243-15.071zm4.081-12.889-1.414 1.414 4.404 4.404 1.414-1.414zm22.077-5.879h5.877l.651-2.604A7.14 7.14 0 0 1 52 14.006h18.764l2-4H48a8.268 8.268 0 0 0-8 6.246zM12.243 32.127l-1.415 1.415 4.404 4.404 1.414-1.415zm36.319-10.121h18.202l2-4H52c-1.428 0-2.683.98-3.03 2.366zm-23.43 6.04-4.404-4.404-1.414 1.414 4.404 4.404zM78 56.834a2 2 0 0 1-4 0v-6.828H30v52h26.828a2 2 0 0 1 0 4H28a2 2 0 0 1-2-2v-56a2 2 0 0 1 2-2h48a2 2 0 0 1 2 2zM54 87.98a2.027 2.027 0 0 1 0 4.052H36.026a2.025 2.025 0 0 1-1.787-2.98l15.974-29.91a2.025 2.025 0 0 1 3.574 0l6.584 12.328a2.026 2.026 0 0 1-3.574 1.909L52 64.397 39.405 87.98zm-4-14.974a2 2 0 0 1 4 0v6a2 2 0 0 1-4 0zm2 9a2 2 0 1 1-.001 4.001A2 2 0 0 1 52 82.006zM90 58c17.661 0 32 14.339 32 32s-14.339 32-32 32-32-14.339-32-32 14.339-32 32-32zm0 4c-15.454 0-28 12.546-28 28s12.546 28 28 28 28-12.546 28-28-12.546-28-28-28zm11.708 45.294c-1.874 1.881-4.884 2.863-8.136 3.107-4.503.337-9.42-.689-11.734-1.85-2.02-1.013-4.236-2.439-5.86-4.784-1.619-2.339-2.692-5.607-2.258-10.396.477-5.267 3.025-8.415 5.292-11.647 1.816-2.589 3.392-5.261 2.627-9.864a2.001 2.001 0 0 1 1.973-2.328c2.595 0 4.833.725 6.667 2.182 2.009 1.598 3.562 4.146 4.428 7.807a4.213 4.213 0 0 0 .951-2.704c0-1.447.874-1.954 1.545-2.145.449-.129 1.214-.194 2.045.456.402.314 1.072 1.082 1.809 2.259 1.384 2.212 3.245 6.071 4.356 10.444 1.664 6.558 1.559 14.183-3.705 19.463zm-10.854-.839c1.341-.056 2.57-.361 3.292-.723.713-.358 1.524-.824 2.097-1.652.578-.835.871-2.021.716-3.732-.206-2.273-1.415-3.58-2.393-4.975-.675-.962-1.29-1.944-1.687-3.096a5.904 5.904 0 0 0-.71 2.229 1.998 1.998 0 0 1-2.51 1.711s-1.651-.447-2.972-1.524l-.073-.06c-.446.943-.904 2.058-1.173 3.117-.656 2.583-.859 5.618 1.123 7.737l.005.004c.557.361 1.196.606 1.865.76.779.104 1.595.175 2.42.204zm10.143-4.921c1.951-3.879 1.589-8.581.538-12.719a36.08 36.08 0 0 0-3.018-7.825c-1.658 2.748-4.535 3.861-4.535 3.861a1.997 1.997 0 0 1-1.755-.162 1.996 1.996 0 0 1-.946-1.486c-.589-5.322-2.428-8.391-5.435-9.345.108 4.414-1.577 7.337-3.559 10.163-1.903 2.713-4.183 5.29-4.584 9.711-.323 3.562.36 6.018 1.564 7.758a9.017 9.017 0 0 0 2 2.058c-.464-2.224-.257-4.599.297-6.782.644-2.54 1.728-4.779 2.531-6.064.488-.78.946-1.277 1.213-1.486.781-.611 1.505-.528 1.928-.407.644.184 1.503.657 1.503 2.046 0 .19.066.344.168.475 1.521-3.58 4.746-5.201 4.746-5.201a2 2 0 0 1 2.874 2.114c-.47 2.833.879 4.208 2.018 5.824 1.129 1.6 2.165 3.347 2.398 5.92.049.547.066 1.062.054 1.547z" fill="#A80200" opacity="1" data-original="#000000"></path></g></svg>