<svg xmlns="http://www.w3.org/2000/svg" version="1.1" xmlns:xlink="http://www.w3.org/1999/xlink" width="512" height="512" x="0" y="0" viewBox="0 0 501.985 501.985" style="enable-background:new 0 0 512 512" xml:space="preserve" class=""><g><path d="m266.568 417.684 77.343-44.646V260.951l-77.343 44.646zm10.24-106.158 56.863-32.829v88.422l-56.863 32.829z" fill="#A80200" opacity="1" data-original="#000000" class=""></path><path d="m279.947 321.961 45.295-26.152 5.114 8.858-45.295 26.152zM279.942 348.127l45.295-26.152 5.115 8.858-45.295 26.152zM279.93 374.284l45.296-26.152 5.114 8.858-45.295 26.152zM200.26 402.262l5.115-8.858 18.72 10.808-5.115 8.858zM121.292 356.823l5.115-8.859 61.816 35.69-5.115 8.86zM66.714 40.883 0 154.394h133.417zm0 20.204 48.814 83.057H17.9z" fill="#A80200" opacity="1" data-original="#000000" class=""></path><path d="M61.594 85.56h10.24v36.659h-10.24zM61.594 130.033h10.24v7.096h-10.24zM497.265 93.076c-3.072-1.219-6.615-2.621-10.496-3.666l-2.662 9.892c3.471.932 6.625 2.202 9.38 3.287 2.038.819 3.891 1.536 5.478 2.038l3.021-9.789c-1.383-.42-2.96-1.065-4.721-1.762zM474.102 98.033l-.399-10.23c-37.693 1.464-49.541 24.535-52.142 46.684l-11.766-7.25-14.019 22.784c-4.7-.297-9.452-.133-14.172.993-12.421 2.959-22.958 10.578-29.655 21.453-.266.43-.41.911-.666 1.352l-108.37-62.566-151.491 87.46v174.93l151.491 87.46 151.491-87.46V245.284c3.113-.123 6.236-.471 9.339-1.208 12.431-2.959 22.958-10.578 29.655-21.463 9.585-15.575 8.94-34.437.287-49.213l14.039-22.804-16.343-10.056c2.252-40.828 32.573-42.118 42.721-42.507zM346.153 208.625c.829 3.492 2.12 6.789 3.656 9.943l-106.885 61.716-52.224-30.147 136.131-78.592 20.357 11.756c-2.561 8.131-3.063 16.804-1.035 25.324zm-189.706 27.269 140.933-81.367 19.2 11.09-139.387 80.476v51.087l-20.746-13.752zm130.693-87.276L151.009 227.21l-44.216-25.528 136.131-78.592zM101.673 210.55l44.534 25.713v52.675l41.226 27.31V260.07l50.36 29.071V446.335l-136.12-78.602zm146.371 235.786V289.142L355.328 227.2c3.42 4.301 7.465 8.11 12.288 11.08 5.161 3.174 10.772 5.212 16.558 6.267v123.187zm176.65-229.089c-5.274 8.55-13.548 14.541-23.306 16.865-9.789 2.324-19.855.717-28.406-4.557-8.55-5.263-14.541-13.537-16.855-23.306-2.335-9.769-.707-19.855 4.557-28.406 5.263-8.55 13.537-14.541 23.306-16.865a38.173 38.173 0 0 1 8.765-1.034c6.871 0 13.629 1.905 19.63 5.591 17.644 10.875 23.163 34.068 12.309 51.712zm2.396-52.644c-2.765-2.888-5.786-5.591-9.349-7.782-3.523-2.171-7.291-3.666-11.141-4.854l6.554-10.639 20.5 12.616z" fill="#A80200" opacity="1" data-original="#000000" class=""></path></g></svg>