<svg xmlns="http://www.w3.org/2000/svg" version="1.1" xmlns:xlink="http://www.w3.org/1999/xlink" width="52" height="52" x="0" y="0" viewBox="0 0 48 48" style="enable-background:new 0 0 512 512" xml:space="preserve"><g><g data-name="Destination Tracking"><path d="M43 38a5 5 0 1 0 5 5 5 5 0 0 0-5-5Zm0 8a3 3 0 1 1 3-3 3 3 0 0 1-3 3ZM48 17A10 10 0 0 0 38 7c-25.25 0-22.75.16-22.29-.29a1 1 0 0 0-1.42-1.42c-1.82 1.82-2.54 2.23-2.22 3.06.11.31.16.3 2.22 2.36a1 1 0 0 0 1.42-1.42C15.26 8.84 12.67 9 38 9a8 8 0 0 1 0 16 1 1 0 0 0 0 2 10 10 0 0 0 10-10ZM35 42H9.5A7.5 7.5 0 0 1 2 34.5c0-3.77 2.84-7.5 8-7.5a1 1 0 0 0 0-2c-6.34 0-10 4.7-10 9.5A9.51 9.51 0 0 0 9.5 44H35a1 1 0 0 0 0-2ZM5 17c5.3 0 6.81-4.89 2.45-6.56C8.65 8.75 10 6.51 10 5A5 5 0 0 0 0 5c0 1.51 1.35 3.75 2.55 5.44C-1.83 12.12-.27 17 5 17ZM5 2a3 3 0 0 1 3 3c0 1.07-1.57 3.53-3 5.4C3.57 8.53 2 6.08 2 5a3 3 0 0 1 3-3ZM3.82 12.14c.36.45.61.86 1.18.86s.8-.4 1.18-.86C9.35 12.87 8 15 5 15s-4.36-2.13-1.18-2.86Z" fill="#D8250F" opacity="1" data-original="#000000"></path><path d="M6 5a1 1 0 0 0-2 0 1 1 0 0 0 2 0ZM24.45 35.89C35 30.6 35 30.87 35 30c0-12.59.23-12.5-.55-12.89-10.7-5.35-10.26-5.32-10.9-5C13.12 17.32 13 17.12 13 18c0 12.73-.23 12.5.55 12.89 10.7 5.35 10.27 5.32 10.9 5ZM15 19.62l8 4v9.76l-8-4Zm10 13.76v-9.76l3-1.5V24a1 1 0 0 0 2 0v-2.88l3-1.5v9.76Zm-1-19.26L31.76 18l-3 1.48-7.42-4.05Zm-4.8 2.4 7.42 4.05L24 21.88 16.24 18Z" fill="#D8250F" opacity="1" data-original="#000000"></path></g></g></svg>